<?xml version="1.0" encoding="UTF-8"?>
<svg width="224px" height="27px" viewBox="0 0 224 27" version="1.1" xmlns="http://www.w3.org/2000/svg" xmlns:xlink="http://www.w3.org/1999/xlink">
    <title>5B100F17-75F1-4264-A4C6-02518A45513B@1x</title>
    <defs>
        <filter color-interpolation-filters="auto" id="filter-1">
            <feColorMatrix in="SourceGraphic" type="matrix" values="0 0 0 0 1.000000 0 0 0 0 1.000000 0 0 0 0 1.000000 0 0 0 1.000000 0"></feColorMatrix>
        </filter>
        <linearGradient x1="0%" y1="46.975125%" x2="100%" y2="53.024875%" id="linearGradient-2">
            <stop stop-color="#FF8355" offset="0%"></stop>
            <stop stop-color="#FF4485" offset="100%"></stop>
        </linearGradient>
    </defs>
    <g id="Original" stroke="none" stroke-width="1" fill="none" fill-rule="evenodd">
        <g id="logo/naat" transform="translate(-10.000000, -10.000000)" filter="url(#filter-1)">
            <g transform="translate(10.000000, 10.000000)" id="Group-2">
                <path d="M43.2269905,0.0457068608 L57.0976596,26.79075 L50.5702859,26.79075 L43.2269905,12.6077726 L35.8836952,26.79075 L29.3563215,26.79075 L43.2269905,0.0457068608 Z M73.7119775,0.0457068608 L87.5826465,26.79075 L81.0552729,26.79075 L73.7119775,12.6077726 L66.3686821,26.79075 L59.8413084,26.79075 L73.7119775,0.0457068608 Z M99.943446,0.0457068608 L99.943446,26.79075 L93.8176892,26.79075 L93.8176892,5.71889783 L86.0583972,5.71889783 L86.0583972,0.0457068608 L99.943446,0.0457068608 Z M105.873639,0.0457068608 C107.557278,0.0457068608 108.922137,1.40640728 108.922137,3.08491631 C108.922137,4.76342534 107.557278,6.12412576 105.873639,6.12412576 C104.189999,6.12412576 102.82514,4.76342534 102.82514,3.08491631 C102.82514,1.40640728 104.189999,0.0457068608 105.873639,0.0457068608 Z M26.141313,5.94288012e-13 L26.141313,26.79075 L0,6.615 L0,5.94288012e-13 L20.4433888,15.9849023 L20.4438473,5.94288012e-13 L26.141313,5.94288012e-13 Z M3.10862447e-15,10.91475 L5.69788684,15.3699881 L5.69746565,26.79075 L3.10862447e-15,26.79075 L3.10862447e-15,10.91475 Z" id="Combined-Shape" fill="url(#linearGradient-2)"></path>
                <path d="M136.208172,1.24344979e-14 L136.208172,5.68288636 L128.58902,5.68288636 L128.58902,26.79075 L122.5739,26.79075 L122.5739,5.68288636 L114.954748,5.68288636 L114.954748,1.24344979e-14 L136.208172,1.24344979e-14 Z M164.94495,0 L164.94495,5.68288636 L149.706647,5.68288636 L149.664535,9.859 L156.92479,9.859736 L156.92479,15.5776465 L149.706647,15.5776465 L149.706647,21.1078636 L164.94495,21.1078636 L164.94495,26.79075 L144.092535,26.79075 L144.092535,0 L164.94495,0 Z M207.968292,0 L207.96818,9.859 L217.59218,9.859 L217.592483,0 L223.206595,0 L223.206595,26.79075 L217.592483,26.79075 L217.592483,15.8228152 L207.968292,15.8228152 L207.968292,26.79075 L202.35418,26.79075 L202.35418,0 L207.968292,0 Z M184.805002,0 C188.860814,0 192.490471,1.84693823 194.917924,4.75525912 L190.628097,8.42136644 C189.230471,6.7465306 187.140447,5.68288636 184.805002,5.68288636 C181.041811,5.68288636 177.915833,8.44284454 177.297083,12.0732341 C177.223957,12.5022892 177.18585,12.9451765 177.18585,13.395375 C177.18585,13.395375 177.224178,14.2872893 177.297719,14.7175159 C177.917972,18.3460691 181.043098,21.1078636 184.805002,21.1078636 C187.140447,21.1078636 189.230471,20.0442194 190.628097,18.3693836 L194.919096,22.0340871 C192.491639,24.9432174 188.861467,26.79075 184.805002,26.79075 C178.034848,26.79075 172.452127,21.6416369 171.666373,15.00282 C171.603888,14.4748879 171.571738,13.9403465 171.571738,13.395375 C171.571738,12.8516453 171.603742,12.314702 171.665946,11.78793 C172.450104,5.14736937 178.033622,0 184.805002,0 Z" id="Combined-Shape" fill="#4C4C4C"></path>
            </g>
        </g>
    </g>
</svg>