<?xml version="1.0" encoding="UTF-8"?>
<svg width="22px" height="22px" viewBox="0 0 22 22" version="1.1" xmlns="http://www.w3.org/2000/svg" xmlns:xlink="http://www.w3.org/1999/xlink">
    <title>82367F82-D3AA-4EFA-963E-8757EE4C58CB@1x</title>
    <defs>
        <filter color-interpolation-filters="auto" id="filter-1">
            <feColorMatrix in="SourceGraphic" type="matrix" values="0 0 0 0 0.999892 0 0 0 0 1.000000 0 0 0 0 0.999881 0 0 0 1.000000 0"></feColorMatrix>
        </filter>
    </defs>
    <g id="Original" stroke="none" stroke-width="1" fill="none" fill-rule="evenodd">
        <g id="iconos/advertencia" transform="translate(-42.000000, -47.000000)" filter="url(#filter-1)">
            <g transform="translate(42.000000, 47.000000)">
                <rect id="fondo" x="0" y="0" width="22" height="22"></rect>
                <path d="M12.2036125,3.32463637 C12.5197024,3.50948915 12.7850688,3.76444271 12.9774713,4.06812942 L19.6621048,15.6191038 C20.3269344,16.6684657 19.980466,18.0369443 18.888246,18.6756863 C18.5255336,18.8878045 18.1090886,19 17.6844655,19 L4.31519857,19 C3.0365497,19 2,18.0041239 2,16.7756485 C2,16.3676874 2.11677783,15.9675836 2.33755929,15.6191038 L9.02219278,4.06812942 C9.68702236,3.01876752 11.1113925,2.68589434 12.2036125,3.32463637 Z M11.6164746,9.39712065 L10.3176482,9.39712065 L10.0027812,16.1448448 L11.944461,16.1448448 L11.6164746,9.39712065 Z M10.9736211,6.39721196 C10.6675004,6.39721196 10.4138575,6.4917469 10.2126925,6.68081678 C10.0115275,6.86988665 9.91094496,7.10307283 9.91094496,7.38037531 C9.91094496,7.64927469 10.0115275,7.87615854 10.2126925,8.06102686 C10.4138575,8.24589519 10.6675004,8.33832935 10.9736211,8.33832935 C11.2709955,8.33832935 11.5180786,8.24589519 11.7148705,8.06102686 C11.9116624,7.87615854 12.0100583,7.64927469 12.0100583,7.38037531 C12.0100583,7.10307283 11.9116624,6.86988665 11.7148705,6.68081678 C11.5180786,6.4917469 11.2709955,6.39721196 10.9736211,6.39721196 Z" id="cambiar-color-de-icono" fill="#FFFFFF"></path>
            </g>
        </g>
    </g>
</svg>