<?xml version="1.0" encoding="UTF-8"?>
<svg width="22px" height="22px" viewBox="0 0 22 22" version="1.1" xmlns="http://www.w3.org/2000/svg" xmlns:xlink="http://www.w3.org/1999/xlink">
    <title>F1DFA5CF-B19C-42EF-8194-F3EB0C5D8E30@1x</title>
    <g id="Original" stroke="none" stroke-width="1" fill="none" fill-rule="evenodd">
        <g id="Assets" transform="translate(-106.000000, -47.000000)">
            <g id="iconos/notificaciones-off" transform="translate(106.000000, 47.000000)">
                <rect id="fondo" x="0" y="0" width="22" height="22"></rect>
                <path d="M11,1 C12.0487593,1 12.9127306,1.75876338 12.9891066,2.72172162 L12.9945945,2.86061628 L12.9936216,3.73953488 L13.0596315,3.75954345 C15.4490172,4.51987806 17.1493275,6.5388922 17.3525327,8.89635951 L17.367833,9.13320034 L17.372973,9.37209302 L17.372973,11.8448837 C17.372973,13.4460558 18.127385,14.9568613 19.4456974,15.9923547 C19.7992242,16.2738818 20,16.6765155 20,17.1046512 C20,17.8633453 19.3763796,18.4854263 18.5846436,18.5522047 L18.443273,18.5581395 L14.2351351,18.5581395 L14.2036762,18.6885175 C13.8634011,19.9190567 12.7322632,20.838733 11.3691371,20.9808584 L11.1818708,20.9953758 L11,21 C9.53890606,21 8.27630475,20.1078575 7.84747724,18.8540632 L7.79632383,18.6885175 L7.76389189,18.5581395 L3.55675676,18.5581395 C2.79496681,18.5581395 2.15744007,18.0442262 2.02517228,17.3660038 L2.00638609,17.2369969 L2,17.1046512 C2,16.6778435 2.19969284,16.2747218 2.54854638,15.9970644 C3.80185657,15.0124575 4.54592454,13.6043717 4.62077571,12.0969797 L4.62702703,11.8448837 L4.62702703,9.37209302 C4.62702703,6.81403725 6.39121198,4.57114976 8.93939712,3.75985297 L9.00443243,3.73953488 L9.00540541,2.86046512 C9.00540541,1.92851174 9.7421166,1.15688668 10.6987069,1.02117584 L10.8514994,1.00510176 L11,1 Z M12.8184865,18.5581395 L9.18054054,18.5581395 C9.44584653,19.1994676 10.0870294,19.6565533 10.8375893,19.7146642 L11,19.7209302 C11.7648174,19.7209302 12.439406,19.3063511 12.7556915,18.6956552 L12.8184865,18.5581395 Z M11,4.72093023 C10.6243262,4.72093023 10.2540352,4.75945269 9.93030895,4.82445788 C9.87782765,4.84410756 9.82209534,4.85705234 9.79425241,4.85828111 C7.64811661,5.35100606 6.09225728,7.10744151 5.99411249,9.1653345 L5.98918919,9.37209302 L5.98918919,11.8448837 C5.98918919,13.8258786 5.05621189,15.6945954 3.43085073,16.9719878 C3.38595783,17.0075479 3.36216216,17.0550615 3.36216216,17.1046512 C3.36216216,17.1835877 3.42170245,17.2520874 3.50454814,17.2727279 L3.55676232,17.2790698 L18.4432432,17.2790698 C18.5520998,17.2790698 18.6378378,17.199375 18.6378378,17.1046512 C18.6378378,17.0552239 18.6141769,17.0074648 18.5733468,16.974978 C17.0156999,15.7504274 16.0933484,13.9867965 16.0160884,12.1025366 L16.0108108,11.8448837 L16.0108108,9.37209302 C16.0108108,7.29542344 14.5244305,5.48766762 12.4188848,4.91064013 L12.2181622,4.85953488 L12.1605347,4.8517352 L12.1052628,4.83542833 C11.7463955,4.75956319 11.3762068,4.72093023 11,4.72093023 Z M11,2.27906977 C10.6821206,2.27906977 10.4195323,2.49628819 10.3744161,2.77522602 L10.3675675,2.86060346 L10.3665946,3.47069767 L10.3911312,3.4687079 C10.4918875,3.45977948 10.5930435,3.45306762 10.694541,3.44858787 L11,3.44186047 L11.3051182,3.44857283 L11.6314595,3.47069767 L11.6324324,2.86046512 C11.6324324,2.57086415 11.3987423,2.32731837 11.0935429,2.28543072 L11,2.27906977 Z" id="cambiar-color-del-icono" fill="#C6C6C6"></path>
            </g>
        </g>
    </g>
</svg>