<?xml version="1.0" encoding="UTF-8"?>
<svg width="22px" height="22px" viewBox="0 0 22 22" version="1.1" xmlns="http://www.w3.org/2000/svg" xmlns:xlink="http://www.w3.org/1999/xlink">
    <title>23BA0055-9295-481B-B04C-8C563DE9AEEC@1x</title>
    <g id="Original" stroke="none" stroke-width="1" fill="none" fill-rule="evenodd">
        <g id="Assets" transform="translate(-170.000000, -47.000000)">
            <g id="iconos/home-on" transform="translate(170.000000, 47.000000)">
                <rect id="fondo" x="0" y="0" width="22" height="22"></rect>
                <path d="M19.5858586,19.6829975 L14.6616162,19.6829975 L14.6616162,13.3006152 C14.6616162,12.5145529 13.9632323,11.8750541 13.1048485,11.8750541 L8.89525253,11.8750541 C8.03676768,11.8750541 7.33838384,12.5145529 7.33838384,13.3006152 L7.33838384,19.6829975 L2.41414141,19.6829975 L2.41414141,9.72956294 L11,2.46036763 L19.5858586,9.72956294 L19.5858586,19.6829975 Z M13.2474747,19.6829975 L8.75252525,19.6829975 L8.75252525,13.3006152 C8.75252525,13.2417264 8.81787879,13.1920566 8.89525253,13.1920566 L13.1048485,13.1920566 C13.1822222,13.1920566 13.2474747,13.2417264 13.2474747,13.3006152 L13.2474747,19.6829975 Z M11.6672727,1.24543282 C11.4740404,1.0818423 11.2370707,1 11,1 C10.7630303,1 10.5260606,1.0818423 10.3327273,1.24543282 L1.37505051,8.8294858 C1.13737374,9.0306109 1,9.32872382 1,9.64292299 L1,19.9410359 C1,20.5258791 1.46666667,21 2.04232323,21 L19.9576768,21 C20.5333333,21 21,20.5258791 21,19.9410359 L21,9.64292299 C21,9.32872382 20.8626263,9.0306109 20.6249495,8.8294858 L11.6672727,1.24543282 Z" id="cambiar-color-del-icono" fill="#C6C6C6"></path>
            </g>
        </g>
    </g>
</svg>