<?xml version="1.0" encoding="UTF-8"?>
<svg width="60px" height="60px" viewBox="0 0 60 60" version="1.1" xmlns="http://www.w3.org/2000/svg" xmlns:xlink="http://www.w3.org/1999/xlink">
    <title>02483308-5CAB-45FA-80ED-1185C23516E1@1x</title>
    <defs>
        <linearGradient x1="26.7561983%" y1="-10.5263158%" x2="72.7054633%" y2="110.526316%" id="linearGradient-1">
            <stop stop-color="#FF8355" offset="0%"></stop>
            <stop stop-color="#FF4485" offset="100%"></stop>
        </linearGradient>
    </defs>
    <g id="Original" stroke="none" stroke-width="1" fill="none" fill-rule="evenodd">
        <g id="Assets" transform="translate(-202.000000, -79.000000)">
            <g id="iconos/noticias" transform="translate(202.000000, 79.000000)">
                <rect id="fondo" x="0" y="0" width="60" height="60"></rect>
                <path d="M50.9090909,0 C51.411168,-9.2230057e-17 51.8181818,0.407013864 51.8181818,0.909090909 L51.8181818,59.0909091 C51.8181818,59.5929861 51.411168,60 50.9090909,60 L11.8181818,60 C11.3161048,60 10.9090909,59.5929861 10.9090909,59.0909091 L10.9090909,0.909090909 C10.9090909,0.407013864 11.3161048,-2.4612829e-15 11.8181818,0 L50.9090909,0 Z M49.3181818,2 L13.4090909,2 C13.1580524,2 12.9545455,2.20350693 12.9545455,2.45454545 L12.9545455,2.45454545 L12.9545455,57.5454545 C12.9545455,57.7964931 13.1580524,58 13.4090909,58 L13.4090909,58 L49.3181818,58 C49.5692203,58 49.7727273,57.7964931 49.7727273,57.5454545 L49.7727273,57.5454545 L49.7727273,2.45454545 C49.7727273,2.20350693 49.5692203,2 49.3181818,2 L49.3181818,2 Z M16.9318182,15 L45.7954545,15 C46.2975316,15 46.7045455,15.4070139 46.7045455,15.9090909 L46.7045455,16.0909091 C46.7045455,16.5929861 46.2975316,17 45.7954545,17 L16.9318182,17 C16.4297411,17 16.0227273,16.5929861 16.0227273,16.0909091 L16.0227273,15.9090909 C16.0227273,15.4070139 16.4297411,15 16.9318182,15 Z M16.9318182,45 L45.7954545,45 C46.2975316,45 46.7045455,45.4070139 46.7045455,45.9090909 L46.7045455,46.0909091 C46.7045455,46.5929861 46.2975316,47 45.7954545,47 L16.9318182,47 C16.4297411,47 16.0227273,46.5929861 16.0227273,46.0909091 L16.0227273,45.9090909 C16.0227273,45.4070139 16.4297411,45 16.9318182,45 Z M16.9318182,49 L45.7954545,49 C46.2975316,49 46.7045455,49.4070139 46.7045455,49.9090909 L46.7045455,50.0909091 C46.7045455,50.5929861 46.2975316,51 45.7954545,51 L16.9318182,51 C16.4297411,51 16.0227273,50.5929861 16.0227273,50.0909091 L16.0227273,49.9090909 C16.0227273,49.4070139 16.4297411,49 16.9318182,49 Z M16.9318182,53 L45.7954545,53 C46.2975316,53 46.7045455,53.4070139 46.7045455,53.9090909 L46.7045455,54.0909091 C46.7045455,54.5929861 46.2975316,55 45.7954545,55 L16.9318182,55 C16.4297411,55 16.0227273,54.5929861 16.0227273,54.0909091 L16.0227273,53.9090909 C16.0227273,53.4070139 16.4297411,53 16.9318182,53 Z M32.2727273,19 L45.7954545,19 C46.2975316,19 46.7045455,19.4070139 46.7045455,19.9090909 L46.7045455,20.0909091 C46.7045455,20.5929861 46.2975316,21 45.7954545,21 L32.2727273,21 C31.7706502,21 31.3636364,20.5929861 31.3636364,20.0909091 L31.3636364,19.9090909 C31.3636364,19.4070139 31.7706502,19 32.2727273,19 Z M16.9318182,32 L31.4772727,32 C31.9793498,32 32.3863636,32.4070139 32.3863636,32.9090909 L32.3863636,33.0909091 C32.3863636,33.5929861 31.9793498,34 31.4772727,34 L16.9318182,34 C16.4297411,34 16.0227273,33.5929861 16.0227273,33.0909091 L16.0227273,32.9090909 C16.0227273,32.4070139 16.4297411,32 16.9318182,32 Z M16.9318182,36 L31.4772727,36 C31.9793498,36 32.3863636,36.4070139 32.3863636,36.9090909 L32.3863636,37.0909091 C32.3863636,37.5929861 31.9793498,38 31.4772727,38 L16.9318182,38 C16.4297411,38 16.0227273,37.5929861 16.0227273,37.0909091 L16.0227273,36.9090909 C16.0227273,36.4070139 16.4297411,36 16.9318182,36 Z M16.9318182,40 L31.4772727,40 C31.9793498,40 32.3863636,40.4070139 32.3863636,40.9090909 L32.3863636,41.0909091 C32.3863636,41.5929861 31.9793498,42 31.4772727,42 L16.9318182,42 C16.4297411,42 16.0227273,41.5929861 16.0227273,41.0909091 L16.0227273,40.9090909 C16.0227273,40.4070139 16.4297411,40 16.9318182,40 Z M16.9318182,19 L28.4090909,19 C28.911168,19 29.3181818,19.4070139 29.3181818,19.9090909 L29.3181818,28.0909091 C29.3181818,28.5929861 28.911168,29 28.4090909,29 L16.9318182,29 C16.4297411,29 16.0227273,28.5929861 16.0227273,28.0909091 L16.0227273,19.9090909 C16.0227273,19.4070139 16.4297411,19 16.9318182,19 Z M45.7954545,32 C46.2975316,32 46.7045455,32.4070139 46.7045455,32.9090909 L46.7045455,41.0909091 C46.7045455,41.5929861 46.2975316,42 45.7954545,42 L34.3181818,42 C33.8161048,42 33.4090909,41.5929861 33.4090909,41.0909091 L33.4090909,32.9090909 C33.4090909,32.4070139 33.8161048,32 34.3181818,32 L45.7954545,32 Z M26.8181818,21 C27.0692203,21 27.2727273,21.2035069 27.2727273,21.4545455 L27.2727273,26.5454545 C27.2727273,26.7964931 27.0692203,27 26.8181818,27 L18.5227273,27 C18.2716888,27 18.0681818,26.7964931 18.0681818,26.5454545 L18.0681818,21.4545455 C18.0681818,21.2035069 18.2716888,21 18.5227273,21 L26.8181818,21 Z M35.9090909,34 L44.2045455,34 C44.455584,34 44.6590909,34.2035069 44.6590909,34.4545455 L44.6590909,39.5454545 C44.6590909,39.7964931 44.455584,40 44.2045455,40 L35.9090909,40 C35.6580524,40 35.4545455,39.7964931 35.4545455,39.5454545 L35.4545455,34.4545455 C35.4545455,34.2035069 35.6580524,34 35.9090909,34 Z M32.2727273,23 L45.7954545,23 C46.2975316,23 46.7045455,23.4070139 46.7045455,23.9090909 L46.7045455,24.0909091 C46.7045455,24.5929861 46.2975316,25 45.7954545,25 L32.2727273,25 C31.7706502,25 31.3636364,24.5929861 31.3636364,24.0909091 L31.3636364,23.9090909 C31.3636364,23.4070139 31.7706502,23 32.2727273,23 Z M45.7954545,27 C46.2975316,27 46.7045455,27.4070139 46.7045455,27.9090909 L46.7045455,28.0909091 C46.7045455,28.5929861 46.2975316,29 45.7954545,29 L32.2727273,29 C31.7706502,29 31.3636364,28.5929861 31.3636364,28.0909091 L31.3636364,27.9090909 C31.3636364,27.4070139 31.7706502,27 32.2727273,27 L45.7954545,27 Z M23.3606797,6.27272727 C24.7885179,6.27272727 25.8383989,7.34316926 25.8383989,8.77272727 C25.8383989,10.2022853 24.7885179,11.2727273 23.3606797,11.2727273 C21.9328416,11.2727273 20.8829605,10.2022853 20.8829605,8.77272727 C20.8829605,7.34316926 21.9328416,6.27272727 23.3606797,6.27272727 Z M34.4684209,6.27272727 C35.6442876,6.27272727 36.2812154,7.03239578 36.2812154,7.03239578 L36.2812154,7.03239578 L35.7142797,7.57797589 C35.7142797,7.57797589 35.2733296,7.04620794 34.4684209,7.04620794 C33.5025303,7.04620794 32.8376057,7.84040683 32.8376057,8.77272727 C32.8376057,9.70504771 33.5025303,10.4992466 34.4684209,10.4992466 C35.3293233,10.4992466 35.7912709,9.90532396 35.7912709,9.90532396 L35.7912709,9.90532396 L36.3512075,10.4509041 C36.3512075,10.4509041 35.7072804,11.2727273 34.4684209,11.2727273 C33.0545811,11.2727273 31.9837025,10.2022853 31.9837025,8.77272727 C31.9837025,7.34316926 33.0545811,6.27272727 34.4684209,6.27272727 Z M45.4361778,6.27272727 C46.458062,6.27272727 47.031997,7.03930186 47.031997,7.03930186 L47.031997,7.03930186 L46.4510628,7.6056002 C46.4510628,7.6056002 46.0451088,7.06002009 45.4361778,7.06002009 C45.0162254,7.06002009 44.6872627,7.31554495 44.6872627,7.64013059 C44.6872627,8.06140131 45.0722191,8.19261678 45.7441429,8.44123556 C46.4930581,8.71747865 47.1159875,9.04897037 47.1159875,9.92604219 C47.1159875,10.803114 46.3320763,11.2727273 45.408181,11.2727273 C44.1833198,11.2727273 43.6163841,10.2851582 43.6163841,10.2851582 L43.6163841,10.2851582 L44.2463127,9.76029633 C44.2463127,9.76029633 44.6662651,10.4854345 45.408181,10.4854345 C45.8281334,10.4854345 46.2620842,10.3196886 46.2620842,9.92604219 C46.2620842,9.51858363 45.9471199,9.373556 45.3661858,9.17327976 C44.6452675,8.92466097 43.8333595,8.53792064 43.8333595,7.64013059 C43.8333595,6.95642893 44.4492897,6.27272727 45.4361778,6.27272727 Z M16.837419,6.3556002 L19.2871414,9.68432948 L19.2871414,6.3556002 L20.1270462,6.3556002 L20.1270462,11.1898543 L19.3711319,11.1898543 L16.9214095,7.86803114 L16.9214095,11.1898543 L16.0815047,11.1898543 L16.0815047,6.3556002 L16.837419,6.3556002 Z M29.5759753,6.3556002 L29.5759753,7.14289302 L28.2251284,7.14289302 L28.2251284,11.1898543 L27.3852236,11.1898543 L27.3852236,7.14289302 L26.0343767,7.14289302 L26.0343767,6.3556002 L29.5759753,6.3556002 Z M31.1297992,6.3556002 L31.1297992,11.1898543 L30.2898944,11.1898543 L30.2898944,6.3556002 L31.1297992,6.3556002 Z M37.9330282,6.3556002 L37.9330282,11.1898543 L37.0931234,11.1898543 L37.0931234,6.3556002 L37.9330282,6.3556002 Z M41.3486411,6.3556002 L43.2524253,11.1898543 L42.4055213,11.1898543 L41.9575721,10.0434455 L39.8858069,10.0434455 L39.4378576,11.1898543 L38.5909536,11.1898543 L40.4947379,6.3556002 L41.3486411,6.3556002 Z M23.3606797,7.06002009 C22.3737916,7.06002009 21.7368638,7.84040683 21.7368638,8.77272727 C21.7368638,9.70504771 22.3737916,10.4854345 23.3606797,10.4854345 C24.3475679,10.4854345 24.9844957,9.70504771 24.9844957,8.77272727 C24.9844957,7.84040683 24.3475679,7.06002009 23.3606797,7.06002009 Z M40.9210909,7.399 L40.1867728,9.283777 L41.6566062,9.283777 L40.9210909,7.399 Z" id="cambiar-color-del-icono" fill="url(#linearGradient-1)"></path>
            </g>
        </g>
    </g>
</svg>