<?xml version="1.0" encoding="UTF-8"?>
<svg width="204px" height="97px" viewBox="0 0 204 97" version="1.1" xmlns="http://www.w3.org/2000/svg" xmlns:xlink="http://www.w3.org/1999/xlink">
    <title>5771137D-1ACD-4D12-A194-7F68D27123EC@2x</title>
    <g id="Original" stroke="none" stroke-width="1" fill="none" fill-rule="evenodd">
        <g id="Assets" transform="translate(-94.000000, -753.000000)">
            <g id="error" transform="translate(94.000000, 753.000000)">
                <path d="M2.02020908,58.8352743 L52.3673194,58.8352743 C53.48305,58.8352743 54.3875284,57.935985 54.3875284,56.8266555 C54.3875284,55.7173259 53.48305,54.8180366 52.3673194,54.8180366 L2.02020908,54.8180366 C0.904478413,54.8180366 8.77520279e-13,55.7173259 8.77520279e-13,56.8266555 C8.77520279e-13,57.935985 0.904478413,58.8352743 2.02020908,58.8352743 Z" id="Path-30-Copy-2" fill="#F5F5F5" fill-rule="nonzero"></path>
                <path d="M143.020209,63.437881 L193.367319,63.437881 C194.48305,63.437881 195.387528,62.5385917 195.387528,61.4292621 C195.387528,60.3199326 194.48305,59.4206433 193.367319,59.4206433 L143.020209,59.4206433 C141.904478,59.4206433 141,60.3199326 141,61.4292621 C141,62.5385917 141.904478,63.437881 143.020209,63.437881 Z" id="Path-30-Copy" fill="#F5F5F5" fill-rule="nonzero"></path>
                <path d="M151.020209,39.3344545 L201.367319,39.3344545 C202.48305,39.3344545 203.387528,38.4351652 203.387528,37.3258356 C203.387528,36.216506 202.48305,35.3172167 201.367319,35.3172167 L151.020209,35.3172167 C149.904478,35.3172167 149,36.216506 149,37.3258356 C149,38.4351652 149.904478,39.3344545 151.020209,39.3344545 Z" id="Path-30-Copy-3" fill="#F5F5F5" fill-rule="nonzero"></path>
                <path d="M35.2257755,35 L65.7742245,35 C66.4512016,35 67,34.1045695 67,33 C67,31.8954305 66.4512016,31 65.7742245,31 L35.2257755,31 C34.5487984,31 34,31.8954305 34,33 C34,34.1045695 34.5487984,35 35.2257755,35 Z" id="Path-30" fill="#F5F5F5" fill-rule="nonzero"></path>
                <path d="M138.448644,12 L174.551356,12 C175.35142,12 176,11.1045695 176,10 C176,8.8954305 175.35142,8 174.551356,8 L138.448644,8 C137.64858,8 137,8.8954305 137,10 C137,11.1045695 137.64858,12 138.448644,12 Z" id="Path-30-Copy-4" fill="#F5F5F5" fill-rule="nonzero"></path>
                <path d="M14.0202091,12.0172378 L64.3673194,12.0172378 C65.48305,12.0172378 66.3875284,11.1179485 66.3875284,10.0086189 C66.3875284,8.8992893 65.48305,8 64.3673194,8 L14.0202091,8 C12.9044784,8 12,8.8992893 12,10.0086189 C12,11.1179485 12.9044784,12.0172378 14.0202091,12.0172378 Z" id="Path-30-Copy-5" fill="#F5F5F5" fill-rule="nonzero"></path>
                <g id="Group" transform="translate(66.000000, 0.000000)" stroke="#DADADA">
                    <g id="Group-11" transform="translate(35.610606, 48.719697) rotate(-270.000000) translate(-35.610606, -48.719697) translate(-12.389394, 13.219697)">
                        <rect id="Rectangle" x="0.78030303" y="1.01060606" width="94" height="69" rx="4.2"></rect>
                    </g>
                </g>
                <g id="Group-3" transform="translate(143.000000, 72.000000)">
                    <g id="Group-6" transform="translate(6.000000, 3.000000)" fill="#D8D8D8">
                        <path d="M14.7348468,15.2578828 L15.3771533,19.2269877 L0,19.2269877 L0.915745006,15.2578828 L14.7348468,15.2578828 Z M13.2514215,8.11349387 L13.7585056,12.0825988 L1.61864771,12.0825988 L2.3416043,8.11349387 L13.2514215,8.11349387 Z M11.1808555,0.969104952 L12.1398579,4.9382099 L3.23729543,4.9382099 L4.12877671,0.969104952 L11.1808555,0.969104952 Z" id="Combined-Shape"></path>
                    </g>
                    <path d="M16.3750683,0.5 L22.3534212,23.5 L5.63554222,23.5 L11.2056208,0.5 L16.3750683,0.5 Z" id="Rectangle" stroke="#DADADA"></path>
                    <line x1="0" y1="23.5" x2="28.1889648" y2="23.5" id="Path-18" stroke="#DADADA"></line>
                </g>
                <g id="Group-3-Copy" transform="translate(33.000000, 72.000000)">
                    <g id="Group-6" transform="translate(6.000000, 3.000000)" fill="#D8D8D8">
                        <path d="M14.7348468,15.2578828 L15.3771533,19.2269877 L0,19.2269877 L0.915745006,15.2578828 L14.7348468,15.2578828 Z M13.2514215,8.11349387 L13.7585056,12.0825988 L1.61864771,12.0825988 L2.3416043,8.11349387 L13.2514215,8.11349387 Z M11.1808555,0.969104952 L12.1398579,4.9382099 L3.23729543,4.9382099 L4.12877671,0.969104952 L11.1808555,0.969104952 Z" id="Combined-Shape"></path>
                    </g>
                    <path d="M16.3750683,0.5 L22.3534212,23.5 L5.63554222,23.5 L11.2056208,0.5 L16.3750683,0.5 Z" id="Rectangle" stroke="#DADADA"></path>
                    <line x1="0" y1="23.5" x2="28.1889648" y2="23.5" id="Path-18" stroke="#DADADA"></line>
                </g>
                <path d="M129.8,4 C132.119596,4 134,5.88040405 134,8.2 L134,88.8 C134,91.1195959 132.119596,93 129.8,93 L73.2,93 C70.8804041,93 69,91.1195959 69,88.8 L69,8.2 C69,5.88040405 70.8804041,4 73.2,4 L129.8,4 Z M102.5,38 C96.7010101,38 92,42.7010101 92,48.5 C92,54.2989899 96.7010101,59 102.5,59 C108.29899,59 113,54.2989899 113,48.5 C113,42.7010101 108.29899,38 102.5,38 Z" id="Combined-Shape" fill="#F5F5F5"></path>
                <g id="Group-4" transform="translate(92.000000, 38.000000)"></g>
                <g id="Group-4" transform="translate(92.000000, 38.000000)">
                    <circle id="Oval" fill="#AEAEAE" cx="10.5" cy="10.5" r="10.5"></circle>
                    <path d="M10.4996891,5.18534822 C11.0026697,5.18534822 11.4104161,5.59309458 11.4104161,6.09607522 C11.4104161,6.1010576 11.4103752,6.10603989 11.4102934,6.1110216 L11.3056506,12.4863535 C11.2984292,12.9263168 10.9397116,13.2791948 10.4996891,13.2791948 C10.0596665,13.2791948 9.70094891,12.9263168 9.69372749,12.4863535 L9.58908472,6.1110216 C9.58083006,5.60810871 9.98182979,5.19372553 10.4847427,5.18547087 C10.4897244,5.1853891 10.4947067,5.18534822 10.4996891,5.18534822 Z M10.4955375,16.5209272 C9.88940962,16.5209272 9.40782856,16.0512324 9.40782856,15.4389518 C9.40782856,14.8266712 9.88940962,14.3569765 10.4955375,14.3569765 C11.1182716,14.3569765 11.5915496,14.8266712 11.5915496,15.4389518 C11.5915496,16.0512324 11.1182716,16.5209272 10.4955375,16.5209272 Z" id="!" fill="#FFFFFF" fill-rule="nonzero"></path>
                </g>
            </g>
        </g>
    </g>
</svg>