<?xml version="1.0" encoding="UTF-8"?>
<svg width="22px" height="22px" viewBox="0 0 22 22" version="1.1" xmlns="http://www.w3.org/2000/svg" xmlns:xlink="http://www.w3.org/1999/xlink">
    <title>A9FD4A4E-6FBE-4AC0-B9CA-B6D329D3753E@1x</title>
    <g id="Original" stroke="none" stroke-width="1" fill="none" fill-rule="evenodd">
        <g id="Assets" transform="translate(-106.000000, -79.000000)" fill="#FFFFFF">
            <g id="iconos/mas-off" transform="translate(106.000000, 79.000000)">
                <path d="M11,0 C17.0751322,0 22,4.92486775 22,11 C22,17.0751322 17.0751322,22 11,22 C4.92486775,22 0,17.0751322 0,11 C0,4.92486775 4.92486775,0 11,0 Z M11,1.04761905 C5.50345178,1.04761905 1.04761905,5.50345178 1.04761905,11 C1.04761905,16.4965482 5.50345178,20.952381 11,20.952381 C16.4965482,20.952381 20.952381,16.4965482 20.952381,11 C20.952381,5.50345178 16.4965482,1.04761905 11,1.04761905 Z M11.7839326,5.51247166 L11.7839326,10.2160674 L16.4875283,10.2160674 L16.4875283,11.7839326 L11.7839326,11.7839326 L11.7839326,16.4875283 L10.2160674,16.4875283 L10.2160674,11.7839326 L5.51247166,11.7839326 L5.51247166,10.2160674 L10.2160674,10.2160674 L10.2160674,5.51247166 L11.7839326,5.51247166 Z" id="iconos/mas"></path>
            </g>
        </g>
    </g>
</svg>