<?xml version="1.0" encoding="UTF-8"?>
<svg width="22px" height="22px" viewBox="0 0 22 22" version="1.1" xmlns="http://www.w3.org/2000/svg" xmlns:xlink="http://www.w3.org/1999/xlink">
    <title>B3877255-4090-455D-BAD9-141EC07EFA4B@1x</title>
    <g id="Original" stroke="none" stroke-width="1" fill="none" fill-rule="evenodd">
        <g id="Assets" transform="translate(-170.000000, -79.000000)">
            <g id="iconos/mas-full" transform="translate(170.000000, 79.000000)">
                <rect id="fondo" x="0" y="0" width="22" height="22"></rect>
                <path d="M11,0 C4.92486775,0 0,4.92486775 0,11 C0,17.0751322 4.92486775,22 11,22 C17.0751322,22 22,17.0751322 22,11 C22,4.92486775 17.0751322,0 11,0 Z" id="cambiar-color-del-fondo" fill="#FF656C"></path>
                <polygon id="simbolo-mas" fill="#FFFFFF" fill-rule="nonzero" points="16.4875283 11.7839326 11.7839326 11.7839326 11.7839326 16.4875283 10.2160674 16.4875283 10.2160674 11.7839326 5.51247166 11.7839326 5.51247166 10.2160674 10.2160674 10.2160674 10.2160674 5.51247166 11.7839326 5.51247166 11.7839326 10.2160674 16.4875283 10.2160674"></polygon>
            </g>
        </g>
    </g>
</svg>