<?xml version="1.0" encoding="UTF-8"?>
<svg width="358px" height="40px" viewBox="0 0 358 40" version="1.1" xmlns="http://www.w3.org/2000/svg" xmlns:xlink="http://www.w3.org/1999/xlink">
    <title>94ED1A20-108A-4A03-B55B-79890F121331@3x</title>
    <g id="Original" stroke="none" stroke-width="1" fill="none" fill-rule="evenodd">
        <g id="Assets" transform="translate(-24.000000, -669.000000)">
            <g id="error-conexion" transform="translate(203.000000, 689.000000) scale(-1, 1) translate(-203.000000, -689.000000) translate(24.000000, 669.000000)">
                <g id="Group-15" transform="translate(0.000000, 3.000000)">
                    <rect id="Rectangle" fill="#D8D8D8" x="0" y="14.6388889" width="114.450867" height="4.72222222"></rect>
                    <path d="M113.904143,9.91666667 L122.080925,9.91666667 L122.080925,9.91666667 L122.080925,24.0833333 L113.904143,24.0833333 C109.992126,24.0833333 106.820809,20.912017 106.820809,17 C106.820809,13.087983 109.992126,9.91666667 113.904143,9.91666667 Z" id="Rectangle" fill="#D8D8D8"></path>
                    <rect id="Rectangle" fill="#AEAEAE" x="150.693642" y="8.97222222" width="14.3063584" height="3.77777778"></rect>
                    <rect id="Rectangle-Copy-9" fill="#AEAEAE" x="150.693642" y="20.3055556" width="14.3063584" height="3.77777778"></rect>
                    <path d="M131.932402,0.472222222 L144.017341,0.472222222 L144.017341,0.472222222 L144.017341,33.5277778 L131.932402,33.5277778 C122.804362,33.5277778 115.404624,26.1280396 115.404624,17 C115.404624,7.87196038 122.804362,0.472222222 131.932402,0.472222222 Z" id="Rectangle-Copy-7" fill="#F5F5F5"></path>
                </g>
                <g id="Group-15-Copy" transform="translate(281.500000, 20.000000) scale(-1, 1) translate(-281.500000, -20.000000) translate(205.000000, 3.000000)">
                    <rect id="Rectangle" fill="#D8D8D8" x="0" y="14.6388889" width="123.35625" height="4.72222222"></rect>
                    <path d="M122.789583,9.91666667 L131.00625,9.91666667 L131.00625,9.91666667 L131.00625,24.0833333 L122.789583,24.0833333 C118.877566,24.0833333 115.70625,20.912017 115.70625,17 C115.70625,13.087983 118.877566,9.91666667 122.789583,9.91666667 Z" id="Rectangle" fill="#D8D8D8"></path>
                    <path d="M140.840278,0.472222222 L153,0.472222222 L153,0.472222222 L153,33.5277778 L140.840278,33.5277778 C131.712238,33.5277778 124.3125,26.1280396 124.3125,17 C124.3125,7.87196038 131.712238,0.472222222 140.840278,0.472222222 Z" id="Rectangle-Copy-7" fill="#F5F5F5"></path>
                </g>
                <rect id="Rectangle-Copy-8" fill="#D8D8D8" x="143" y="0" width="9" height="40" rx="4.5"></rect>
                <rect id="Rectangle-Copy-8" fill="#D8D8D8" x="197" y="0" width="9" height="40" rx="4.5"></rect>
            </g>
        </g>
    </g>
</svg>