<?xml version="1.0" encoding="UTF-8"?>
<svg width="22px" height="22px" viewBox="0 0 22 22" version="1.1" xmlns="http://www.w3.org/2000/svg" xmlns:xlink="http://www.w3.org/1999/xlink">
    <title>A0545B8D-EE43-4958-A358-BEC7C0AE20FB@1x</title>
    <g id="Original" stroke="none" stroke-width="1" fill="none" fill-rule="evenodd">
        <g id="Assets" transform="translate(-234.000000, -47.000000)">
            <g id="iconos/actividad-on" transform="translate(234.000000, 47.000000)">
                <rect id="fondo" x="0" y="0" width="22" height="22"></rect>
                <path d="M2,16 C2.55228475,16 3,16.4477153 3,17 C3,17.5522847 2.55228475,18 2,18 C1.44771525,18 1,17.5522847 1,17 C1,16.4477153 1.44771525,16 2,16 Z M20,16 C20.5522847,16 21,16.4477153 21,17 C21,17.5522847 20.5522847,18 20,18 L6,18 C5.44771525,18 5,17.5522847 5,17 C5,16.4477153 5.44771525,16 6,16 L20,16 Z M2,12 C2.55228475,12 3,12.4477153 3,13 C3,13.5522847 2.55228475,14 2,14 C1.44771525,14 1,13.5522847 1,13 C1,12.4477153 1.44771525,12 2,12 Z M20,12 C20.5522847,12 21,12.4477153 21,13 C21,13.5522847 20.5522847,14 20,14 L6,14 C5.44771525,14 5,13.5522847 5,13 C5,12.4477153 5.44771525,12 6,12 L20,12 Z M2,8 C2.55228475,8 3,8.44771525 3,9 C3,9.55228475 2.55228475,10 2,10 C1.44771525,10 1,9.55228475 1,9 C1,8.44771525 1.44771525,8 2,8 Z M20,8 C20.5522847,8 21,8.44771525 21,9 C21,9.55228475 20.5522847,10 20,10 L6,10 C5.44771525,10 5,9.55228475 5,9 C5,8.44771525 5.44771525,8 6,8 L20,8 Z M2,4 C2.55228475,4 3,4.44771525 3,5 C3,5.55228475 2.55228475,6 2,6 C1.44771525,6 1,5.55228475 1,5 C1,4.44771525 1.44771525,4 2,4 Z M20,4 C20.5522847,4 21,4.44771525 21,5 C21,5.55228475 20.5522847,6 20,6 L6,6 C5.44771525,6 5,5.55228475 5,5 C5,4.44771525 5.44771525,4 6,4 L20,4 Z" id="cambiar-color-del-icono" fill="#C6C6C6"></path>
            </g>
        </g>
    </g>
</svg>