<?xml version="1.0" encoding="UTF-8"?>
<svg width="60px" height="60px" viewBox="0 0 60 60" version="1.1" xmlns="http://www.w3.org/2000/svg" xmlns:xlink="http://www.w3.org/1999/xlink">
    <title>27BC7C1C-EA5F-4FC4-B2D1-9BE683DB061E@1x</title>
    <defs>
        <linearGradient x1="0%" y1="-10.5263158%" x2="98.8419745%" y2="110.526316%" id="linearGradient-1">
            <stop stop-color="#FF8355" offset="0%"></stop>
            <stop stop-color="#FF4485" offset="100%"></stop>
        </linearGradient>
    </defs>
    <g id="Original" stroke="none" stroke-width="1" fill="none" fill-rule="evenodd">
        <g id="Assets" transform="translate(-342.000000, -79.000000)">
            <g id="iconos/Nsquare" transform="translate(342.000000, 79.000000)">
                <rect id="cambiar-color-del-fondo" fill="url(#linearGradient-1)" x="0" y="0" width="60" height="60" rx="4.91803279"></rect>
                <path d="M41.6933294,14.7540984 L41.6933294,45.2459016 L27.4158852,33.8730984 L12.7868852,22.1570984 L12.7868852,14.7540984 L35.5419769,31.9584911 L35.5419769,14.7540984 L41.6933294,14.7540984 Z M12.7868852,26.4520984 L19.1738852,31.8910984 L19.174638,45.2459016 L12.7868852,45.2459016 L12.7868852,26.4520984 Z M48.7549429,14.8063429 C50.6195692,14.8063429 52.1311475,16.3616705 52.1311475,18.2802644 C52.1311475,20.1988583 50.6195692,21.7541859 48.7549429,21.7541859 C46.8903166,21.7541859 45.3787383,20.1988583 45.3787383,18.2802644 C45.3787383,16.3616705 46.8903166,14.8063429 48.7549429,14.8063429 Z" id="cambiar-color-de-la-N" fill="#FFFFFF"></path>
            </g>
        </g>
    </g>
</svg>