<?xml version="1.0" encoding="UTF-8"?>
<svg width="22px" height="22px" viewBox="0 0 22 22" version="1.1" xmlns="http://www.w3.org/2000/svg" xmlns:xlink="http://www.w3.org/1999/xlink">
    <title>85103F84-8F5F-4737-863C-1E29572FFBD9@1x</title>
    <g id="Original" stroke="none" stroke-width="1" fill="none" fill-rule="evenodd">
        <g id="Assets" transform="translate(-10.000000, -47.000000)">
            <g id="iconos/google" transform="translate(10.000000, 47.000000)">
                <rect id="fondo" x="0" y="0" width="22" height="22"></rect>
                <path d="M11,1 C13.4263672,1 15.6510937,1.86429688 17.3829687,3.3021875 L14.1433984,5.954375 C13.231875,5.38460938 12.154375,5.05546875 11,5.05546875 C8.47748236,5.05546875 6.32185549,6.6269641 5.45837392,8.84427543 L5.37632813,9.068125 C5.16863281,9.67363281 5.05542969,10.3236328 5.05542969,11 C5.05549665,11.6291964 5.15319754,12.2358068 5.33473226,12.8048993 L5.43242187,13.0862891 C6.27691406,15.3401172 8.45109375,16.9445313 11,16.9445313 C12.0955859,16.9445313 13.1219922,16.6483594 14.0027344,16.1313281 C15.1720312,15.445625 16.0857812,14.3725391 16.5671094,13.0879297 L11.2198437,13.0879297 L11.2198437,9.131875 L20.8252734,9.131875 C20.9401172,9.73679688 21,10.3615234 21,11 C21,11.7159375 20.9247266,12.4142969 20.7813281,13.0879297 C20.3188711,15.2656191 19.1477753,17.1809843 17.5210668,18.5815349 L17.2604297,18.7983594 C15.5467188,20.1758203 13.3697656,21 11,21 C7.19175781,21 3.88078125,18.8714453 2.19175781,15.7390234 L2.192,15.738 L2.19175781,15.7389844 C1.43132813,14.3285547 1,12.7148438 1,11 C1,9.4693149 1.34362426,8.01914386 1.9587335,6.72211773 L2.11867188,6.40109375 C3.78242187,3.19230469 7.13515625,1 11,1 Z" id="cambiar-color-de-icono" fill="#FFFFFF"></path>
            </g>
        </g>
    </g>
</svg>