<?xml version="1.0" encoding="UTF-8"?>
<svg width="18px" height="16px" viewBox="0 0 18 16" version="1.1" xmlns="http://www.w3.org/2000/svg" xmlns:xlink="http://www.w3.org/1999/xlink">
    <title>01F01C20-AA5E-4386-95BD-0E9513AE8BEB@2x</title>
    <g id="Original" stroke="none" stroke-width="1" fill="none" fill-rule="evenodd">
        <g id="Assets" transform="translate(-10.000000, -109.000000)" fill="#C6C6C6">
            <path d="M20.2036125,109.324636 C20.5197024,109.509489 20.7850688,109.764443 20.9774713,110.068129 L27.6621048,121.619104 C28.3269344,122.668466 27.980466,124.036944 26.888246,124.675686 C26.5255336,124.887804 26.1090886,125 25.6844655,125 L12.3151986,125 C11.0365497,125 10,124.004124 10,122.775649 C10,122.367687 10.1167778,121.967584 10.3375593,121.619104 L17.0221928,110.068129 C17.6870224,109.018768 19.1113925,108.685894 20.2036125,109.324636 Z M19.6164746,115.397121 L18.3176482,115.397121 L18.0027812,122.144845 L19.944461,122.144845 L19.6164746,115.397121 Z M18.9736211,112.397212 C18.6675004,112.397212 18.4138575,112.491747 18.2126925,112.680817 C18.0115275,112.869887 17.910945,113.103073 17.910945,113.380375 C17.910945,113.649275 18.0115275,113.876159 18.2126925,114.061027 C18.4138575,114.245895 18.6675004,114.338329 18.9736211,114.338329 C19.2709955,114.338329 19.5180786,114.245895 19.7148705,114.061027 C19.9116624,113.876159 20.0100583,113.649275 20.0100583,113.380375 C20.0100583,113.103073 19.9116624,112.869887 19.7148705,112.680817 C19.5180786,112.491747 19.2709955,112.397212 18.9736211,112.397212 Z" id="alets2"></path>
        </g>
    </g>
</svg>