<?xml version="1.0" encoding="UTF-8"?>
<svg width="22px" height="22px" viewBox="0 0 22 22" version="1.1" xmlns="http://www.w3.org/2000/svg" xmlns:xlink="http://www.w3.org/1999/xlink">
    <title>9935F896-C799-45C7-9F27-196A3BB3547D@1x</title>
    <g id="Original" stroke="none" stroke-width="1" fill="none" fill-rule="evenodd">
        <g id="Assets" transform="translate(-362.000000, -47.000000)">
            <g id="iconos/flecha" transform="translate(362.000000, 47.000000)">
                <rect id="fondo" x="0" y="0" width="22" height="22"></rect>
                <path d="M6.24675557,3.2372012 C6.55403384,2.95719976 7.04360053,2.92408839 7.39380809,3.14320197 L7.49436794,3.21650813 L15.7296605,10.1741987 C16.0489351,10.4439419 16.0865326,10.873752 15.8364757,11.1810352 L15.752823,11.2692618 L7.51753049,18.7631826 C7.17928282,19.07098 6.6207006,19.0799072 6.26990218,18.7831221 C5.95099453,18.5133175 5.91359433,18.0837395 6.16356037,17.7766115 L6.24717703,17.6884288 L13.8694112,10.7522581 L6.27033958,4.33188054 C5.95122032,4.06226861 5.9134831,3.63271329 6.16320812,3.32543437 L6.24675557,3.2372012 Z" id="cambiar-color-del-icono" fill="#FFFFFF" transform="translate(11.000000, 11.000000) rotate(-270.000000) translate(-11.000000, -11.000000) "></path>
            </g>
        </g>
    </g>
</svg>