<?xml version="1.0" encoding="UTF-8"?>
<svg width="22px" height="22px" viewBox="0 0 22 22" version="1.1" xmlns="http://www.w3.org/2000/svg" xmlns:xlink="http://www.w3.org/1999/xlink">
    <title>53A00668-89C6-42CA-B533-1ED760EEAFD7@1x</title>
    <g id="Original" stroke="none" stroke-width="1" fill="none" fill-rule="evenodd">
        <g id="Assets" transform="translate(-298.000000, -47.000000)">
            <g id="iconos/buscar-negro" transform="translate(298.000000, 47.000000)">
                <rect id="fondo" x="0" y="0" width="22" height="22"></rect>
                <path d="M10.7487175,4 C14.4747175,4 17.497435,6.97478213 17.497435,10.6470953 C17.497435,12.2267183 16.9350302,13.719087 15.9354995,14.8997632 L15.7225871,15.1384615 L17.8251517,17.7257033 C18.0774346,18.036084 18.0514641,18.4783666 17.7811323,18.757958 L17.7013724,18.8299552 C17.5598196,18.9414241 17.3870469,19 17.2100513,19 C17.0068682,19 16.811385,18.9229911 16.6638793,18.7831879 L16.5943111,18.7081192 L14.5210819,16.1576923 L14.5121384,16.165024 C13.4884496,16.843845 12.2941059,17.2356165 11.039309,17.2881205 L10.7487175,17.2941905 C7.02267006,17.2941905 4,14.3194323 4,10.6470953 C4,6.97475824 7.02267006,4 10.7487175,4 Z M10.7487175,5.56604388 C7.96923715,5.56604388 5.69660539,7.73424727 5.58471097,10.4380792 L5.5803934,10.6470953 L5.58471102,10.856108 C5.69660662,13.5598998 7.96926187,15.7281466 10.7487175,15.7281466 C13.5994412,15.7281466 15.9170416,13.4472822 15.9170416,10.6470953 C15.9170416,7.8468627 13.5994666,5.56604388 10.7487175,5.56604388 Z" id="cambiar-color-del-icono" fill="#333333"></path>
            </g>
        </g>
    </g>
</svg>