<?xml version="1.0" encoding="UTF-8"?>
<svg width="131px" height="16px" viewBox="0 0 131 16" version="1.1" xmlns="http://www.w3.org/2000/svg" xmlns:xlink="http://www.w3.org/1999/xlink">
    <title>E4CD7AE6-625D-4CCA-84D2-B5BDCB043679@1x</title>
    <defs>
        <linearGradient x1="0%" y1="46.8942012%" x2="100%" y2="53.1057988%" id="linearGradient-1">
            <stop stop-color="#FF8355" offset="0%"></stop>
            <stop stop-color="#FF4485" offset="100%"></stop>
        </linearGradient>
    </defs>
    <g id="Original" stroke="none" stroke-width="1" fill="none" fill-rule="evenodd">
        <g id="Assets" transform="translate(-244.000000, -10.000000)">
            <g id="Group-2" transform="translate(244.000000, 10.000000)">
                <path d="M25.2800704,0.0270855472 L33.3919349,15.876 L29.5745869,15.876 L25.2800704,7.47127264 L20.9855539,15.876 L17.1682059,15.876 L25.2800704,0.0270855472 Z M43.108344,0.0270855472 L51.2202085,15.876 L47.4028605,15.876 L43.108344,7.47127264 L38.8138275,15.876 L34.9964795,15.876 L43.108344,0.0270855472 Z M58.4490688,0.0270855472 L58.4490688,15.876 L54.866595,15.876 L54.866595,3.38897649 L50.3287948,3.38897649 L50.3287948,0.0270855472 L58.4490688,0.0270855472 Z M61.9171726,0.0270855472 C62.901801,0.0270855472 63.7,0.833426536 63.7,1.82809855 C63.7,2.82277057 62.901801,3.62911156 61.9171726,3.62911156 C60.9325443,3.62911156 60.1343453,2.82277057 60.1343453,1.82809855 C60.1343453,0.833426536 60.9325443,0.0270855472 61.9171726,0.0270855472 Z M15.288,3.51718654e-13 L15.288,15.876 L-2.27373675e-13,3.92 L-2.27373675e-13,3.51718654e-13 L11.9557318,9.47253467 L11.956,3.51718654e-13 L15.288,3.51718654e-13 Z M-2.25597319e-13,6.468 L3.33224632,9.10814108 L3.332,15.876 L-2.25597319e-13,15.876 L-2.25597319e-13,6.468 Z" id="Combined-Shape" fill="url(#linearGradient-1)"></path>
                <path d="M79.6574577,7.99360578e-15 L79.6574577,3.36763636 L75.2016143,3.36763636 L75.2016143,15.876 L71.6838433,15.876 L71.6838433,3.36763636 L67.228,3.36763636 L67.228,7.99360578e-15 L79.6574577,7.99360578e-15 Z M96.4633415,0 L96.4633415,3.36763636 L87.5516549,3.36763636 L87.5274019,5.842 L91.7729801,5.84280652 L91.7729801,9.23119791 L87.5516549,9.23119791 L87.5516549,12.5083636 L96.4633415,12.5083636 L96.4633415,15.876 L84.2684019,15.876 L84.2684019,0 L96.4633415,0 Z M121.624313,0 L121.62406,5.842 L127.25206,5.842 L127.252747,0 L130.536,0 L130.536,15.876 L127.252747,15.876 L127.252747,9.37648311 L121.624313,9.37648311 L121.624313,15.876 L118.34106,15.876 L118.34106,0 L121.624313,0 Z M108.077925,0 C110.449996,0 112.572811,1.09461536 113.992439,2.81824654 L111.482988,4.98994352 C110.665627,3.99773413 109.443516,3.36763636 108.077925,3.36763636 C105.87713,3.36763636 104.048992,5.00316714 103.687133,7.15450909 C103.644368,7.40876397 103.622082,7.67121571 103.622082,7.938 C103.622082,7.938 103.644497,8.46654183 103.687505,8.72149091 C104.050242,10.8717447 105.877883,12.5083636 108.077925,12.5083636 C109.443973,12.5083636 110.666445,11.8778445 111.483808,10.8850612 L113.993272,13.0567411 C112.573642,14.780956 110.45046,15.876 108.077925,15.876 C104.118594,15.876 100.8537,12.8246737 100.394173,8.89056 C100.357631,8.57771137 100.338829,8.26094606 100.338829,7.938 C100.338829,7.61578978 100.357545,7.29760121 100.393924,6.98544 C100.852516,3.05029296 104.117877,0 108.077925,0 Z" id="Combined-Shape" fill="#4C4C4C"></path>
            </g>
        </g>
    </g>
</svg>