<?xml version="1.0" encoding="UTF-8"?>
<svg width="22px" height="22px" viewBox="0 0 22 22" version="1.1" xmlns="http://www.w3.org/2000/svg" xmlns:xlink="http://www.w3.org/1999/xlink">
    <title>A1816F16-7E97-4D61-841A-1A2EE48A9980@1x</title>
    <g id="Original" stroke="none" stroke-width="1" fill="none" fill-rule="evenodd">
        <g id="Assets" transform="translate(-330.000000, -47.000000)">
            <g id="iconos/cerrar" transform="translate(330.000000, 47.000000)">
                <rect id="fondo" x="0" y="0" width="22" height="22"></rect>
                <path d="M17.6782851,4.24752146 C18.0528889,4.57025702 18.1032673,5.09821526 17.8141653,5.47543968 L17.7348084,5.5663995 L12.36,11 L17.7348084,16.4336105 L17.8141653,16.5245703 C18.1032673,16.9017947 18.0528889,17.429753 17.6782851,17.7524885 C17.2724644,18.1021187 16.6398053,18.0784995 16.2652015,17.6997334 L16.2652015,17.6997334 L11,12.375 L5.73480844,17.6997334 C5.36020468,18.0784995 4.72754563,18.1021187 4.32172489,17.7524885 C3.94712113,17.429753 3.89674264,16.9017947 4.18584469,16.5245703 L4.26520155,16.4336105 L9.639,11 L4.26520155,5.5663995 L4.18584469,5.47543968 C3.89674264,5.09821526 3.94712113,4.57025702 4.32172489,4.24752146 C4.72754563,3.89789127 5.36020468,3.92151054 5.73480844,4.30027658 L5.73480844,4.30027658 L11,9.624 L16.2652015,4.30027658 C16.6398053,3.92151054 17.2724644,3.89789127 17.6782851,4.24752146 Z" id="cambiar-color-de-icono" fill="#FF656C"></path>
            </g>
        </g>
    </g>
</svg>