<?xml version="1.0" encoding="UTF-8"?>
<svg width="10px" height="10px" viewBox="0 0 10 10" version="1.1" xmlns="http://www.w3.org/2000/svg" xmlns:xlink="http://www.w3.org/1999/xlink">
    <title>88BD13CD-A1A0-486B-9657-C339008DE743@1x</title>
    <g id="Original" stroke="none" stroke-width="1" fill="none" fill-rule="evenodd">
        <g id="Assets" transform="translate(-394.000000, -53.000000)">
            <g id="iconos/cerrar-sesion" transform="translate(394.000000, 53.000000)">
                <rect id="fondo" x="0" y="0" width="10" height="10"></rect>
                <path d="M3.73679421,0 C3.75986388,0 3.78329829,0.00217530088 3.80686947,0.00666777008 L3.80686947,0.00666777008 L7.80139658,0.70337881 C8.02010253,0.737663443 8.18181818,0.932589317 8.18181818,1.16198898 L8.18181818,1.16198898 L8.18181818,8.83801102 C8.18181818,9.06741068 8.02010253,9.26238385 7.80139658,9.29662119 L7.80139658,9.29662119 L3.80686947,9.99333223 C3.78329829,9.9978247 3.75986388,10 3.73679421,10 C3.53094527,10 3.35591669,9.82649611 3.35591669,9.60400066 L3.35591669,9.60400066 L3.35591669,9.35743504 L2.13732746,9.35743504 C1.96106788,9.35743504 1.81818182,9.20923084 1.81818182,9.02641099 L1.81818182,9.02641099 L1.81818182,0.973636299 C1.81818182,0.790816447 1.96106788,0.642612253 2.13732746,0.642612253 L2.13732746,0.642612253 L3.35591669,0.642612253 L3.35591669,0.395999338 C3.35591669,0.17350389 3.53094527,0 3.73679421,0 Z M3.99420796,0.705554111 L3.99420796,9.29444589 L7.54352691,8.66743906 L7.54352691,1.33256094 L3.99420796,0.705554111 Z M3.35591669,1.30466035 L2.45647309,1.30466035 L2.45647309,8.69538694 L3.35591669,8.69538694 L3.35591669,1.30466035 Z M4.98065977,4.60269075 C5.20501916,4.60269075 5.38684099,4.79127988 5.38684099,5.02398979 C5.38684099,5.2566524 5.20501916,5.44528882 4.98065977,5.44528882 C4.75634598,5.44528882 4.57447856,5.2566524 4.57447856,5.02398979 C4.57447856,4.79127988 4.75634598,4.60269075 4.98065977,4.60269075 Z" id="cambiar-color-del-icono" fill="#FFFFFF"></path>
            </g>
        </g>
    </g>
</svg>